<mxfile host="Electron" modified="2024-05-28T15:38:09.683Z" agent="Mozilla/5.0 (X11; Linux x86_64) AppleWebKit/537.36 (KHTML, like Gecko) draw.io/24.4.8 Chrome/124.0.6367.207 Electron/30.0.6 Safari/537.36" etag="7uNQWVLL2-oIqhD1f8zA" version="24.4.8" type="device">
  <diagram name="Page-1" id="2-xb8xto2det803CvWkQ">
    <mxGraphModel dx="1114" dy="729" grid="1" gridSize="10" guides="1" tooltips="1" connect="1" arrows="1" fold="1" page="1" pageScale="1" pageWidth="1100" pageHeight="850" math="0" shadow="0">
      <root>
        <mxCell id="0" />
        <mxCell id="1" parent="0" />
      </root>
    </mxGraphModel>
  </diagram>
</mxfile>
